# File created by Blade
# Date/Time:  Tue Sep 30 19:35:54 2014
#---------------------------------------------------------
:version 1.10
:name HOM
:units
  mass 1.0
  length 1.000000
  angle deg
:documentation
     Acclaim Skeleton File
:root
   axis xyz
   order TX TY TZ RX RY RZ
   position 0.000000 0.000000 0.000000
   orientation 0 0 0
:bonedata
   begin
      id 1
      name Spine_dum
      direction 0.000000 1.000000 0.000000
      length 3.241213
      axis 0.0 0.0 0.0 xyz
   end
   begin
      id 2
      name LeftUpLeg_dum
      direction 1.000000 0.000000 0.000000
      length 3.434019
      axis 0.0 0.0 0.0 xyz
   end
   begin
      id 3
      name RightUpLeg_dum
      direction -1.000000 0.000000 0.000000
      length 3.434019
      axis 0.0 0.0 0.0 xyz
   end
   begin
      id 4
      name Spine
      direction 0.000000 1.000000 0.000000
      length 0.000000
      axis 0.0 0.0 0.0 xyz
      dof rx ry rz
   end
   begin
      id 5
      name Spine_dum1
      direction 0.000000 1.000000 0.000000
      length 18.382958
      axis 0.0 0.0 0.0 xyz
   end
   begin
      id 6
      name Spine_dum2
      direction 0.000000 1.000000 0.000000
      length 12.828261
      axis 0.0 0.0 0.0 xyz
   end
   begin
      id 7
      name Spine_dum3
      direction 0.000000 1.000000 0.000000
      length 12.828261
      axis 0.0 0.0 0.0 xyz
   end
   begin
      id 8
      name Head
      direction 0.000000 1.000000 0.000000
      length 4.527550
      axis 0.0 0.0 0.0 xyz
      dof rx ry rz
   end
   begin
      id 9
      name LeftShoulder
      direction 1.000000 0.000000 0.000000
      length 7.748055
      axis 0.0 0.0 -90.0 xyz
      dof rx ry rz
   end
   begin
      id 10
      name LeftArm
      direction 1.000000 0.000000 0.000000
      length 10.635614
      axis 0.0 0.0 -90.0 xyz
      dof rx ry rz
   end
   begin
      id 11
      name LeftForeArm
      direction 1.000000 0.000000 0.000000
      length 8.346755
      axis 0.0 0.0 -90.0 xyz
      dof ry rz rx
   end
   begin
      id 12
      name LeftHand
      direction 0.000000 0.000000 0.000000
      length 0.000000
      axis 0.0 0.0 -90.0 xyz
      dof rx ry rz
   end
   begin
      id 13
      name LeftHand_dum1
      direction 0.000000 0.000000 0.000000
      length 0.000000
      axis 0.0 0.0 -90.0 xyz
   end
   begin
      id 14
      name LeftHand_dum2
      direction 1.000000 0.000000 0.000000
      length 3.937000
      axis 0.0 0.0 -90.0 xyz
   end
   begin
      id 15
      name LeftHandThumb1
      direction 0.000000 0.000000 1.000000
      length 3.937000
      axis 0.0 0.0 -90.0 xyz
      dof rx rz ry
   end
   begin
      id 16
      name RightShoulder
      direction -1.000000 0.000000 0.000000
      length 7.748055
      axis 0.0 0.0 90.0 xyz
      dof rx ry rz
   end
   begin
      id 17
      name RightArm
      direction -1.000000 0.000000 0.000000
      length 10.635614
      axis 0.0 0.0 90.0 xyz
      dof rx ry rz
   end
   begin
      id 18
      name RightForeArm
      direction -1.000000 0.000000 0.000000
      length 8.346755
      axis 0.0 0.0 90.0 xyz
      dof ry rz rx
   end
   begin
      id 19
      name RightHand
      direction 0.000000 0.000000 0.000000
      length 0.000000
      axis 0.0 0.0 90.0 xyz
      dof rx ry rz
   end
   begin
      id 20
      name RightHand_dum1
      direction 0.000000 0.000000 0.000000
      length 0.000000
      axis 0.0 0.0 90.0 xyz
   end
   begin
      id 21
      name RightHand_dum2
      direction -1.000000 0.000000 0.000000
      length 3.937000
      axis 0.0 0.0 90.0 xyz
   end
   begin
      id 22
      name RightHandThumb1
      direction 0.000000 0.000000 1.000000
      length 3.937000
      axis 0.0 0.0 90.0 xyz
      dof rx rz ry
   end
   begin
      id 23
      name LeftUpLeg
      direction 0.000000 -1.000000 0.000000
      length 15.713025
      axis 0.0 0.0 0.0 xyz
      dof rx ry rz
   end
   begin
      id 24
      name LeftLeg
      direction 0.000000 -1.000000 0.000000
      length 14.435119
      axis 0.0 0.0 0.0 xyz
      dof rx ry rz
   end
   begin
      id 25
      name LeftFoot
      direction 0.000000 -0.258819 0.965926
      length 4.938895
      axis 15.0 0.0 0.0 xyz
      dof rx ry rz
   end
   begin
      id 26
      name LeftToeBase
      direction 0.000000 0.000000 1.000000
      length 2.952750
      axis 0.0 0.0 0.0 xyz
      dof rx ry rz
   end
   begin
      id 27
      name RightUpLeg
      direction 0.000000 -1.000000 0.000000
      length 15.713025
      axis 0.0 0.0 0.0 xyz
      dof rx ry rz
   end
   begin
      id 28
      name RightLeg
      direction 0.000000 -1.000000 0.000000
      length 14.435119
      axis 0.0 0.0 0.0 xyz
      dof rx ry rz
   end
   begin
      id 29
      name RightFoot
      direction 0.000000 -0.258819 0.965926
      length 4.938895
      axis 15.0 0.0 0.0 xyz
      dof rx ry rz
   end
   begin
      id 30
      name RightToeBase
      direction 0.000000 0.000000 1.000000
      length 2.952750
      axis 0.0 0.0 0.0 xyz
      dof rx ry rz
   end
:hierarchy
   begin
      root Spine_dum LeftUpLeg_dum RightUpLeg_dum
      Spine_dum Spine
      LeftUpLeg_dum LeftUpLeg
      RightUpLeg_dum RightUpLeg
      Spine Spine_dum1 Spine_dum2 Spine_dum3
      Spine_dum1 Head
      Spine_dum2 LeftShoulder
      Spine_dum3 RightShoulder
      LeftShoulder LeftArm
      LeftArm LeftForeArm
      LeftForeArm LeftHand
      LeftHand LeftHand_dum1 LeftHand_dum2
      LeftHand_dum1 LeftHandThumb1
      RightShoulder RightArm
      RightArm RightForeArm
      RightForeArm RightHand
      RightHand RightHand_dum1 RightHand_dum2
      RightHand_dum1 RightHandThumb1
      LeftUpLeg LeftLeg
      LeftLeg LeftFoot
      LeftFoot LeftToeBase
      RightUpLeg RightLeg
      RightLeg RightFoot
      RightFoot RightToeBase
   end

# File created by Blade
# Date/Time:  Tue Sep 23 19:15:59 2014
# Frame Rate: 120.000 fps
#------------------------------------------------------
:FULLY-SPECIFIED
:DEGREES
386
root 3.821968 32.937183 -4.207610 39.694764 -28.300316 -26.463750
Spine -33.051124 -8.959208 25.864270
Head 10.290273 -0.572564 4.921781
LeftShoulder 7.914737 38.228213 33.317384
LeftArm 83.317693 20.105766 -50.670347
LeftForeArm 13.189219 0.000000 70.380601
LeftHand 45.319853 -0.000000 10.727569
LeftHandThumb1 -26.253704 0.000000 33.147579
RightShoulder 10.032813 -44.830676 -17.495919
RightArm 75.820772 -3.671593 37.678171
RightForeArm 57.681981 -0.000000 46.297245
RightHand 6.381230 -0.000000 30.952698
RightHandThumb1 -24.326973 -0.000000 -32.862282
LeftUpLeg -37.862452 16.952643 9.250362
LeftLeg 24.623469 -0.000000 -0.000000
LeftFoot -22.270886 12.133890 -5.918954
LeftToeBase 3.090564 -0.000000 -0.000000
RightUpLeg -167.315160 -1.761207 18.404908
RightLeg 131.530297 -0.000000 -0.000000
RightFoot 42.496934 -9.840145 6.782298
RightToeBase 50.274267 -0.000000 -0.000000
387
root 3.835610 32.948402 -4.229898 39.821838 -28.077795 -26.485525
Spine -33.190785 -9.047343 26.005208
Head 9.894486 -0.743937 4.692240
LeftShoulder 8.006213 38.166670 33.399434
LeftArm 83.259353 20.117292 -50.847178
LeftForeArm 13.344798 0.000000 70.313174
LeftHand 45.393368 -0.000000 10.542708
LeftHandThumb1 -26.253704 0.000000 33.147579
RightShoulder 10.396070 -45.148390 -17.846616
RightArm 75.629495 -3.483663 38.698788
RightForeArm 59.516606 -0.000000 46.254116
RightHand 5.303298 -0.000000 31.837669
RightHandThumb1 -24.326973 -0.000000 -32.862282
LeftUpLeg -38.035570 16.898177 9.321340
LeftLeg 24.524102 -0.000000 -0.000000
LeftFoot -22.401373 11.981534 -6.257363
LeftToeBase 3.172341 -0.000000 -0.000000
RightUpLeg -167.403790 -1.762521 18.547008
RightLeg 131.663758 -0.000000 -0.000000
RightFoot 41.358627 -10.444200 6.418774
RightToeBase 50.206839 -0.000000 -0.000000
388
root 3.849267 32.956073 -4.249723 39.868090 -27.906145 -26.450426
Spine -33.247894 -9.117920 26.046375
Head 9.399594 -0.933701 4.444089
LeftShoulder 8.094110 38.162361 33.450219
LeftArm 83.257145 20.078540 -50.913291
LeftForeArm 13.457622 -0.000000 70.331771
LeftHand 45.316485 -0.000000 10.650390
LeftHandThumb1 -26.253704 0.000000 33.147579
RightShoulder 10.649410 -45.479254 -18.069494
RightArm 75.223193 -3.166105 40.243849
RightForeArm 57.841776 0.000000 46.917968
RightHand 5.287636 -0.000000 31.329624
RightHandThumb1 -24.326973 -0.000000 -32.862282
LeftUpLeg -38.155237 16.873745 9.315490
LeftLeg 24.427264 -0.000000 -0.000000
LeftFoot -22.498409 11.883505 -6.545346
LeftToeBase 3.183207 -0.000000 -0.000000
RightUpLeg -167.451219 -1.724663 18.636210
RightLeg 131.714436 -0.000000 -0.000000
RightFoot 40.975116 -11.222250 6.397422
RightToeBase 50.339029 -0.000000 -0.000000
389
root 3.856178 32.964359 -4.269407 39.911639 -27.743745 -26.512569
Spine -33.226760 -9.172089 26.155918
Head 8.851946 -1.054138 4.138093
LeftShoulder 8.124593 38.263988 33.433580
LeftArm 83.278797 19.979044 -50.956517
LeftForeArm 13.756918 -0.000000 70.398390
LeftHand 45.205768 0.000000 10.895360
LeftHandThumb1 -26.253704 0.000000 33.147579
RightShoulder 10.712017 -45.746020 -18.148251
RightArm 74.819805 -2.892892 41.511573
RightForeArm 56.173350 -0.000000 47.883944
RightHand 5.820778 -0.000000 30.577864
RightHandThumb1 -24.326973 -0.000000 -32.862282
LeftUpLeg -38.232666 16.934341 9.384275
LeftLeg 24.375830 -0.000000 -0.000000
LeftFoot -22.551204 11.806216 -6.716872
LeftToeBase 3.061456 -0.000000 -0.000000
RightUpLeg -167.399065 -1.688449 18.773457
RightLeg 131.641445 -0.000000 -0.000000
RightFoot 41.565760 -11.015121 6.442093
RightToeBase 50.015503 -0.000000 -0.000000
390
root 3.859866 32.968451 -4.284538 39.905564 -27.605375 -26.536982
Spine -33.163426 -9.230992 26.199049
Head 8.255396 -1.216394 3.873556
LeftShoulder 8.120756 38.353840 33.416337
LeftArm 83.308079 19.925574 -51.000055
LeftForeArm 13.949413 -0.000000 70.471301
LeftHand 45.022740 -0.000000 11.118709
LeftHandThumb1 -26.253704 0.000000 33.147579
RightShoulder 10.356874 -45.912588 -17.934372
RightArm 74.609630 -2.784667 42.040358
RightForeArm 56.085882 -0.000000 48.767295
RightHand 6.334717 -0.000000 30.080908
RightHandThumb1 -24.326973 -0.000000 -32.862282
LeftUpLeg -38.284790 16.960968 9.431059
LeftLeg 24.367692 -0.000000 -0.000000
LeftFoot -22.596733 11.813583 -6.813675
LeftToeBase 2.946804 -0.000000 -0.000000
RightUpLeg -167.335656 -1.696047 18.867300
RightLeg 131.511596 -0.000000 -0.000000
RightFoot 42.450984 -10.257883 6.713325
RightToeBase 49.602484 -0.000000 -0.000000
391
root 3.869086 32.969223 -4.297711 39.882765 -27.416970 -26.549681
Spine -33.097038 -9.361479 26.316660
Head 7.620935 -1.321037 3.575595
LeftShoulder 8.048697 38.379437 33.344626
LeftArm 83.301119 19.928329 -51.039580
LeftForeArm 14.017046 -0.000000 70.509489
LeftHand 44.826409 -0.000000 11.416192
LeftHandThumb1 -26.253704 0.000000 33.147579
RightShoulder 9.807231 -45.918742 -17.619734
RightArm 74.495832 -2.823706 42.006162
RightForeArm 56.577402 -0.000000 49.627242
RightHand 6.964138 -0.000000 29.877363
RightHandThumb1 -24.326973 -0.000000 -32.862282
LeftUpLeg -38.344386 16.833414 9.537018
LeftLeg 24.393814 -0.000000 -0.000000
LeftFoot -22.690959 11.969947 -6.961865
LeftToeBase 3.013539 -0.000000 -0.000000
RightUpLeg -167.255436 -1.738367 18.994578
RightLeg 131.396341 -0.000000 -0.000000
RightFoot 42.912395 -9.377937 6.975965
RightToeBase 49.376300 -0.000000 -0.000000
392
root 3.885644 32.966586 -4.308864 39.856930 -27.233585 -26.491765
Spine -33.070771 -9.544690 26.431368
Head 6.983825 -1.387172 3.259633
LeftShoulder 7.905879 38.329291 33.214939
LeftArm 83.225200 19.983007 -51.090782
LeftForeArm 13.991780 0.000000 70.504164
LeftHand 44.852269 -0.000000 11.579822
LeftHandThumb1 -26.253704 0.000000 33.147579
RightShoulder 9.182220 -45.712846 -17.310366
RightArm 74.312920 -3.030739 41.912952
RightForeArm 57.152779 -0.000000 50.543653
RightHand 7.284445 -0.000000 30.244606
RightHandThumb1 -24.326973 -0.000000 -32.862282
LeftUpLeg -38.463702 16.668755 9.549631
LeftLeg 24.436015 -0.000000 -0.000000
LeftFoot -22.726627 12.243527 -7.065218
LeftToeBase 2.972869 -0.000000 -0.000000
RightUpLeg -167.222777 -1.723743 19.064024
RightLeg 131.265632 -0.000000 -0.000000
RightFoot 43.064649 -8.871012 6.882252
RightToeBase 49.465144 -0.000000 -0.000000
393
root 3.901740 32.964233 -4.319015 39.941140 -27.059657 -26.461533
Spine -33.144995 -9.697790 26.598653
Head 6.367451 -1.398046 2.949892
LeftShoulder 7.699604 38.254034 33.057986
LeftArm 83.116944 20.089622 -51.152524
LeftForeArm 13.725934 -0.000000 70.454430
LeftHand 44.937425 -0.000000 11.530651
LeftHandThumb1 -26.253704 0.000000 33.147579
RightShoulder 8.532020 -45.360266 -17.065763
RightArm 73.987383 -3.362436 42.116936
RightForeArm 56.770053 -0.000000 51.646999
RightHand 7.404024 -0.000000 30.257764
RightHandThumb1 -24.326973 -0.000000 -32.862282
LeftUpLeg -38.652533 16.531818 9.557404
LeftLeg 24.434975 -0.000000 -0.000000
LeftFoot -22.711685 12.642134 -7.028544
LeftToeBase 2.634069 -0.000000 -0.000000
RightUpLeg -167.267793 -1.556884 19.180901
RightLeg 131.176039 -0.000000 -0.000000
RightFoot 42.732779 -9.142528 6.795920
RightToeBase 49.597429 -0.000000 -0.000000
394
root 3.917780 32.960021 -4.322692 39.933157 -26.983902 -26.405909
Spine -33.127284 -9.805378 26.663974
Head 5.804249 -1.434473 2.619053
LeftShoulder 7.539682 38.190151 32.897617
LeftArm 83.016406 20.141789 -51.169448
LeftForeArm 13.521297 -0.000000 70.414779
LeftHand 45.054774 -0.000000 11.361085
LeftHandThumb1 -26.253704 0.000000 33.147579
RightShoulder 7.853844 -44.972050 -16.870318
RightArm 73.618301 -3.784758 42.560592
RightForeArm 55.081247 -0.000000 52.736411
RightHand 6.813923 -0.000000 29.321340
RightHandThumb1 -24.326973 -0.000000 -32.862282
LeftUpLeg -38.726270 16.472933 9.479287
LeftLeg 24.436822 -0.000000 -0.000000
LeftFoot -22.750799 13.104215 -7.075068
LeftToeBase 2.567778 -0.000000 -0.000000
RightUpLeg -167.246422 -1.342397 19.229143
RightLeg 131.143502 -0.000000 -0.000000
RightFoot 42.189598 -9.705790 6.837405
RightToeBase 49.655554 -0.000000 -0.000000
395
root 3.939382 32.952993 -4.323282 39.916217 -26.861320 -26.276119
Spine -33.164383 -9.965047 26.745796
Head 5.223763 -1.445283 2.258240
LeftShoulder 7.345515 38.097481 32.680298
LeftArm 82.921194 20.166061 -51.154709
LeftForeArm 13.513157 -0.000000 70.430890
LeftHand 45.085958 -0.000000 11.114186
LeftHandThumb1 -26.253704 0.000000 33.147579
RightShoulder 7.149292 -44.575762 -16.754518
RightArm 73.439167 -4.308873 42.936931
RightForeArm 53.791658 -0.000000 53.451504
RightHand 6.270621 -0.000000 28.742489
RightHandThumb1 -24.326973 -0.000000 -32.862282
LeftUpLeg -38.804814 16.249134 9.384725
LeftLeg 24.339643 -0.000000 -0.000000
LeftFoot -22.774142 13.848752 -7.045015
LeftToeBase 2.659864 -0.000000 -0.000000
RightUpLeg -167.315561 -1.272008 19.272899
RightLeg 131.136325 -0.000000 -0.000000
RightFoot 41.874701 -10.003994 6.902300
RightToeBase 49.579939 -0.000000 -0.000000
396
root 3.956328 32.946656 -4.319803 39.885598 -26.778626 -26.181940
Spine -33.165846 -10.075147 26.801307
Head 4.716100 -1.494399 1.923056
LeftShoulder 7.187012 38.038998 32.476326
LeftArm 82.864614 20.150855 -51.137604
LeftForeArm 13.529385 -0.000000 70.476172
LeftHand 45.074355 -0.000000 10.848745
LeftHandThumb1 -26.253704 0.000000 33.147579
RightShoulder 6.507639 -44.156727 -16.703062
RightArm 73.332201 -4.945985 43.096224
RightForeArm 53.744956 -0.000000 53.912732
RightHand 6.223567 -0.000000 28.229636
RightHandThumb1 -24.326973 -0.000000 -32.862282
LeftUpLeg -38.822384 16.104075 9.298457
LeftLeg 24.241838 -0.000000 -0.000000
LeftFoot -22.691155 14.765598 -6.764903
LeftToeBase 2.439890 -0.000000 -0.000000
RightUpLeg -167.361150 -1.223056 19.316491
RightLeg 131.177782 -0.000000 -0.000000
RightFoot 41.769961 -10.087324 6.969256
RightToeBase 49.489781 -0.000000 -0.000000
